Coordinates
version=1
nRows=16
nColumns=36
inDegrees=yes

Units are S.I. units (second, meters, Newtons, ...)
If the header above contains a line with 'inDegrees', this indicates whether rotational values are in degrees (yes) or radians (no).

endheader
time	pelvis_tilt	pelvis_list	pelvis_rotation	pelvis_tx	pelvis_ty	pelvis_tz	hip_flexion_r	hip_adduction_r	hip_rotation_r	knee_angle_r	knee_angle_r_beta	ankle_angle_r	subtalar_angle_r	mtp_angle_r	hip_flexion_l	hip_adduction_l	hip_rotation_l	knee_angle_l	knee_angle_l_beta	ankle_angle_l	subtalar_angle_l	mtp_angle_l	lumbar_extension	lumbar_bending	lumbar_rotation	arm_flex_r	arm_add_r	arm_rot_r	elbow_flex_r	pro_sup_r	arm_flex_l	arm_add_l	arm_rot_l	elbow_flex_l	pro_sup_l
      2.56666670	     -7.65005622	     -3.05838977	      1.35018570	     -0.26579517	      1.52848048	     -0.05669728	     22.57411451	     -0.43509838	     -2.54034511	     45.86285030	      0.80045774	     -2.63830859	     -7.04168014	     -7.49999987	     24.71137948	     -5.58779300	      8.27145219	     40.74798607	      0.71118652	     -1.14318110	     -2.77228157	     -7.49999987	    -18.52113504	     -1.18876473	      1.00345550	    100.98332046	    -31.32423369	     32.19433446	    111.78913210	     94.85845605	     98.43892804	     -8.28676451	     34.89661417	    100.51758338	     90.36549293
      2.58333330	     -7.70768215	     -3.15559560	      0.93805828	     -0.23904724	      1.51982852	     -0.05380907	     23.04754638	     -0.81459358	     -3.10860982	     44.94369304	      0.78441542	     -2.36604859	     -5.37671100	     -7.49999987	     24.65099287	     -6.22133150	      6.90619796	     39.31856993	      0.68623850	     -1.76211176	     -3.52048247	     -7.49999987	    -17.81037752	     -1.08093096	      1.10222858	     96.85540338	    -33.01603555	     32.36131523	    113.65643314	     94.63645972	     95.44741809	    -10.11778027	     35.29202873	    100.67798422	     90.52072624
      2.60000000	     -7.61860339	     -2.84654489	      0.33302392	     -0.23235604	      1.51154833	     -0.04815412	     23.53219301	     -1.34167472	     -2.92369865	     42.36352502	      0.73938299	     -3.43048524	     -4.14353082	     -7.49999987	     25.84613192	     -6.49617893	      5.71096471	     38.76075582	      0.67650281	     -3.75185411	     -3.35202741	     -7.49999987	    -17.68504144	     -1.98138038	      1.56782979	     92.84149894	    -34.78042202	     30.58606322	    114.92430613	     95.00047739	     93.54609238	    -10.94620020	     36.06022286	    100.05230748	     91.55939926
      2.61666670	     -7.53953356	     -2.24583611	     -0.05051541	     -0.21978225	      1.49651000	     -0.04597386	     24.01725314	     -2.10192453	     -3.36367842	     39.31146705	      0.68611453	     -6.34491539	     -4.58002507	     -7.49999987	     26.79788850	     -6.74111427	      3.50859356	     36.83800034	      0.64294440	     -7.45568779	     -4.73240152	     -7.49999987	    -17.59134938	     -2.54999721	      2.01417787	     91.82495698	    -34.53269583	     32.39935006	    113.75133168	     94.94907990	     91.86125405	    -11.87007517	     37.51890223	     97.78759191	     91.57611173
      2.63333330	     -7.50007881	     -2.06630921	      0.11323905	     -0.20830596	      1.48340085	     -0.05512334	     25.47087941	     -3.31434501	     -3.54369697	     37.76908418	      0.65919487	     -9.00051012	     -3.96319822	     -7.49999987	     27.76228932	     -6.25413974	      3.22201555	     35.19776679	      0.61431692	     -9.79894080	     -4.78808423	     -7.49999987	    -18.24601989	     -2.17128909	      1.90870609	     90.15841540	    -36.10593240	     32.47106776	    115.05723539	     95.11093157	     90.61943190	    -13.27184082	     37.84575992	     98.46979522	     91.77500424
      2.65000000	     -7.57962674	     -1.47330615	     -0.06362909	     -0.17204572	      1.45729376	     -0.05177761	     25.57060894	     -4.53013093	     -4.02159815	     35.36771227	      0.61728303	    -11.38405860	     -4.18034745	     -7.49999987	     27.48947916	     -5.80453740	      2.54506704	     32.56199276	      0.56831398	    -11.91379323	     -4.43817430	     -7.49999987	    -17.69737520	     -2.71628293	      2.32044163	     85.98538532	    -38.70519301	     31.46329412	    117.12562114	     95.19223319	     85.74470114	    -14.89421695	     36.25118853	    103.42469549	     91.83406356
      2.66666670	     -7.64277283	     -1.42743635	      0.26856255	     -0.15046150	      1.44221716	     -0.04286584	     24.70296130	     -4.56040262	     -4.12233759	     30.87771838	      0.53891785	    -11.61730540	     -2.26678515	     -7.49999987	     26.78316416	     -5.63124099	      1.79891195	     29.66861924	      0.51781509	    -13.36376864	     -4.05971230	     -7.49999987	    -16.48770052	     -2.80142986	      2.04320766	     79.02355769	    -39.34093526	     28.86622477	    119.95542250	     96.04403289	     79.44775787	    -18.89275004	     35.55747837	    110.37071492	     92.78708080
      2.68333330	     -7.74362882	     -1.85361651	      0.38293360	     -0.13877695	      1.41925998	     -0.04288921	     24.64064136	     -4.30787332	     -4.58915473	     27.23612749	      0.47536010	    -14.10062847	     -0.62451271	     -7.49999987	     27.05177819	     -6.18918208	      1.56231221	     28.16992778	      0.49165799	    -13.54448811	     -2.05668456	     -7.49999987	    -16.18167956	     -2.33663771	      1.93014893	     72.30574945	    -41.34804811	     26.72963070	    123.08993540	     96.79280667	     73.34478046	    -22.64048117	     33.38200827	    114.56915945	     93.34749897
      2.70000000	     -7.82951674	     -1.64911873	      0.25705610	     -0.12709981	      1.39083903	     -0.04265470	     25.34791808	     -4.55356472	     -5.25170284	     24.33428653	      0.42471342	    -15.76909984	      1.30306929	     -7.49999987	     27.54143843	     -6.40739731	      0.65154904	     25.88123003	      0.45171268	    -16.14749642	     -1.66195856	     -7.49999987	    -16.46312584	     -2.53751772	      2.26650580	     69.08281079	    -42.53228863	     24.80995222	    122.55469954	     96.38250021	     69.81680908	    -24.95216678	     32.56704289	    114.93146511	     92.87096251
      2.71666670	     -7.41923663	     -1.53174001	      0.71681165	     -0.10523080	      1.36555551	     -0.04369487	     25.02436395	     -4.97129452	     -6.08494092	     20.73788488	      0.36194437	    -18.65124498	      2.44177307	     -7.49999987	     27.01590764	     -6.72744997	     -0.36441107	     22.36864674	      0.39040653	    -18.78902573	     -1.32676912	     -7.49999987	    -16.88816218	     -3.12501306	      3.71619648	     61.29991897	    -46.21113608	     19.72865203	    125.04646261	     92.94774305	     68.31899003	    -24.34359880	     35.15580196	    112.67336484	     88.78502687
      2.73333330	     -6.84998473	     -1.51488944	      0.75002627	     -0.07554854	      1.33055808	     -0.04375491	     23.68991365	     -4.91007929	     -6.22157707	     17.23525791	      0.30081200	    -20.27721862	      4.19804085	     -7.49999987	     25.62412130	     -6.75467928	     -1.34536391	     18.81202640	      0.32833180	    -21.30494430	     -0.68283993	     -7.49999987	    -16.55952110	     -2.47092324	      3.21729522	     55.85553687	    -46.70555362	     18.90082464	    126.11188930	     92.91419531	     62.75583469	    -26.20740755	     32.61364395	    111.83732954	     88.50408022
      2.75000000	     -6.65135697	     -1.43607696	      0.99816116	     -0.05608045	      1.29017679	     -0.04336736	     22.76548652	     -5.10841354	     -6.13605541	     14.08455980	      0.24582194	    -21.32229382	      5.55578686	     -7.49999987	     25.40116730	     -6.50172714	     -1.51289275	     16.98533232	      0.29644997	    -22.66200847	      0.28660246	     -7.49999987	    -16.07807359	     -2.20556332	      3.12426620	     50.81142486	    -47.71821250	     17.89719585	    127.65096289	     92.61607115	     57.49256223	    -26.49669430	     29.87973383	    112.62466987	     87.96897250
      2.76666670	     -6.15822763	     -1.45051591	      0.56516111	     -0.04563334	      1.25293900	     -0.04154966	     22.62366148	     -5.17208759	     -6.09807673	     11.81963336	      0.20629152	    -22.80426980	      7.47097217	     -7.49999987	     25.40876641	     -6.72057476	     -2.49551364	     15.70449609	      0.27409516	    -24.90495988	      0.76446236	     -7.49999987	    -16.39071661	     -3.38708514	      5.44918076	     36.70868526	    -50.34804101	      9.03523551	    129.98311812	     87.20026152	     55.79064017	    -24.36875029	     31.39511730	    111.21861627	     81.68061580
      2.78333330	     -5.34757544	     -1.62190849	     -0.31053965	     -0.02514536	      1.21284571	     -0.02444544	     22.23092045	     -4.10362220	     -6.09885695	     10.19639903	      0.17796073	    -23.84803386	      7.85870100	     -7.49999987	     24.36754382	     -7.89004603	     -3.37472852	     13.85295691	      0.24177971	    -25.46488914	      2.46600332	     -7.49999987	    -16.41426851	     -3.95033967	      5.66322622	     31.87176710	    -49.16188271	      9.82897947	    128.60941984	     87.13071785	     52.25032491	    -26.52163379	     30.93779387	    111.74038647	     81.42506651
      2.80000000	     -4.80603044	     -1.93719858	     -0.14764418	      0.00722662	      1.17062306	     -0.03906745	     21.17667390	     -3.82105806	     -5.55499808	      8.60650492	      0.15021185	    -25.32562384	      8.49494627	     -7.49999987	     23.17957821	     -7.90627601	     -3.30476503	     11.84309498	      0.20670100	    -26.41853621	      3.83732600	     -7.49999987	    -15.45136276	     -3.32569619	      5.09910436	     23.24448658	    -48.48071489	      8.86372432	    128.69671835	     86.88756951	     44.45833580	    -28.13443571	     28.57161408	    113.09635629	     80.79751832
      2.81666670	     -3.65268342	     -2.37291040	      0.02173586	      0.02027381	      1.11941327	     -0.04323578	     20.64970522	     -3.80585676	     -5.44561513	      8.65569617	      0.15107040	    -25.11303978	      9.05303813	     -7.49999987	     22.66843303	     -8.10370506	     -3.58862682	     12.68618480	      0.22141569	    -27.43624758	      2.97419711	     -7.49999987	    -17.32554424	     -3.59031809	     13.36206040	     -7.37092312	    -50.01998271	    -19.64006574	    138.08595445	     83.78042396	     48.00956174	    -22.42760474	     36.10537354	    109.06511451	     75.91521672
